# xmcd CD database file
#
# Track frame offsets:
#	182
#	14087
#	27855
#	41740
#	55110
#	69020
#	80727
#	95812
#	110157
#	123600
#	135385
#	146927
#	156992
#	174697
#	186310
#	207557
#	226900
#	240830
#	252782
#	266657
#	280345
#	293432
#
# Disc length: 4058 seconds
#
# Revision: 0
# Processed by: cddbd v1.5PL3 Copyright (c) Steve Scherf et al.
# Submitted via: CDex 1.51
#
DISCID=4b0fd816
DTITLE=Roy Eldridge - The Big Sound of Little Jazz
DYEAR=1900
DGENRE=Jazz
TTITLE0=(Lookire, Lookie, Lookie) Here Comes Cookie
TTITLE1=Sweet Lorraine
TTITLE2=I Hope Gabriel Likes My Music
TTITLE3=Swing is Here
TTITLE4=Christopher Columbus
TTITLE5=Jangled Nerves
TTITLE6=Blues in C Sharp Minor
TTITLE7=Wabash Stomp
TTITLE8=Florida Stomp
TTITLE9=Heckler's Hop
TTITLE10=Where The Lazy River Goes By
TTITLE11=Sittin' In
TTITLE12=Body and Soul
TTITLE13=Forty-Six West Fifty Two
TTITLE14=I Surrender Dear
TTITLE15=I Can't Believe That You're In Love With Me
TTITLE16=Let Me Off Uptown
TTITLE17=After You've Gone
TTITLE18=Rockin' Chair
TTITLE19=Knock Me A Kiss
TTITLE20=The Gasser
TTITLE21=Star Dust
EXTD=
EXTT0=
EXTT1=
EXTT2=
EXTT3=
EXTT4=
EXTT5=
EXTT6=
EXTT7=
EXTT8=
EXTT9=
EXTT10=
EXTT11=
EXTT12=
EXTT13=
EXTT14=
EXTT15=
EXTT16=
EXTT17=
EXTT18=
EXTT19=
EXTT20=
EXTT21=
PLAYORDER=
